PathFileType	4	(X/Y/Z)	D:\Share\Shared_Data\Ergonomics\Sit To Stand Pertubation\S3\Unperturbed.trc
DataRate	CameraRate	NumFrames	NumMarkers	Units	OrigDataRate	OrigDataStartFrame	OrigNumFrames	
100	100	17	18	m	100	1512	191
Frame#	Time	R_Thigh			R_ASIS			R_Pelvis			V_Sacral			L_Pelvis			L_ASIS			Clavical			R_Acromium			L_Acromium			Sternum			Torso			R_Thigh_Med			R_Thigh_Lat			R_Shank_Med			R_Shank_Lat			R_Shank			R_Heel			R_Toe			
		X1	Y1	Z1	X2	Y2	Z2	X3	Y3	Z3	X4	Y4	Z4	X5	Y5	Z5	X6	Y6	Z6	X7	Y7	Z7	X8	Y8	Z8	X9	Y9	Z9	X10	Y10	Z10	X11	Y11	Z11	X12	Y12	Z12	X13	Y13	Z13	X14	Y14	Z14	X15	Y15	Z15	X16	Y16	Z16	X17	Y17	Z17	X18	Y18	Z18	

1512	15.11	0.20654349	0.58255951	0.10662688	0.10082062	0.61701752	0.13673947	0.0002951588	0.66443616	0.19227386	-0.095603455	0.71405914	0.0033842299	0.009593008	0.68627997	-0.20528633	0.11329034	0.62890497	-0.15098544	0.29860065	0.95723419	0.0015362229	0.28847263	1.0307797	0.16470221	0.31045258	1.0254105	-0.14832956	0.27770282	0.87405017	0.0052437763	0.29679163	0.93870203	-0.060124191	0.37996793	0.4545748	0.086395309	0.35579224	0.43292935	0.20218715	0.26112823	0.10613938	0.092555847	0.2370434	0.097621719	0.17173441	0.27836075	0.26585446	0.20036411	0.17987932	0.056847603	0.12689897	0.39910959	0.0542803	0.13613736
1513	15.12	0.21051241	0.5831225	0.10704263	0.10584081	0.61831659	0.13684711	0.0059430227	0.66677869	0.19254034	-0.089684814	0.717474	0.0035885541	0.015213789	0.68843945	-0.20532385	0.11849921	0.62988708	-0.15081445	0.30662854	0.95679248	0.0013660721	0.29745798	1.0304933	0.16417818	0.31974927	1.0249375	-0.1479075	0.28544998	0.87364478	0.0049515839	0.30524451	0.93837994	-0.059936749	0.38288071	0.45379037	0.086464638	0.35846136	0.43184897	0.20192924	0.26140326	0.10593626	0.092265945	0.23724658	0.097628265	0.17145639	0.27981549	0.26543301	0.20000272	0.17995163	0.056805111	0.12679416	0.39926141	0.054195789	0.13611461
1514	15.13	0.21471274	0.58366846	0.10731129	0.11077141	0.61987695	0.13700557	0.011372949	0.6691568	0.19269331	-0.083892418	0.72084644	0.0036722517	0.020797581	0.69064313	-0.20540259	0.12347604	0.63104822	-0.15061267	0.31427777	0.95677106	0.0011970215	0.30589142	1.0306583	0.1636627	0.32855762	1.0247676	-0.14752602	0.29288354	0.87367041	0.0047119336	0.31336041	0.93845172	-0.05972208	0.38594211	0.45312231	0.086586792	0.36126285	0.43074237	0.2016132	0.26167868	0.1057467	0.091989967	0.23744209	0.097634949	0.1712	0.28132199	0.26503601	0.19963419	0.18002049	0.056785854	0.12670802	0.39939722	0.054114723	0.13610999
1515	15.14	0.21913237	0.58422528	0.10747604	0.11560586	0.62168542	0.13719264	0.01659516	0.67158728	0.19272939	-0.078227119	0.7242121	0.0036553154	0.026326132	0.6929259	-0.20551741	0.12825816	0.63241321	-0.15039191	0.32155975	0.95721655	0.0010309054	0.31374933	1.0313062	0.16317468	0.33684164	1.0249435	-0.14721924	0.30001083	0.87417389	0.0045454178	0.32110828	0.93894257	-0.059498402	0.38910962	0.45261505	0.086805046	0.3641618	0.42961295	0.20127299	0.26195221	0.10557684	0.091737694	0.23763202	0.097635895	0.17097704	0.28285626	0.26466776	0.19928419	0.18008672	0.056795071	0.12664448	0.399517	0.054034328	0.136119
1516	15.15	0.2237558	0.5848222	0.10758659	0.12035542	0.6237359	0.13738507	0.021636055	0.6741015	0.1926573	-0.072679039	0.72761969	0.0035709426	0.031788647	0.695328	-0.20565788	0.13288647	0.63400446	-0.15016063	0.32848062	0.95816675	0.00086425072	0.32103152	1.032457	0.16272955	0.3445737	1.0255236	-0.14702208	0.3068446	0.87519635	0.004467226	0.32846347	0.93988055	-0.05928812	0.39233469	0.45225027	0.087120728	0.36711856	0.42846652	0.20093835	0.26222037	0.10543045	0.091514877	0.23781152	0.097629677	0.1707932	0.28439569	0.26433105	0.19897012	0.18015149	0.05683271	0.12660355	0.39962177	0.053952305	0.13613809
1517	15.16	0.22855647	0.58548529	0.10768839	0.12504417	0.62602979	0.13756084	0.026533278	0.67674323	0.19249733	-0.067231438	0.73112616	0.0034592397	0.037184235	0.69789093	-0.20580948	0.13740033	0.63584229	-0.14992093	0.33504605	0.95965155	0.00069042069	0.32775818	1.0341233	0.16233728	0.35173877	1.0265784	-0.14696289	0.31339859	0.87677026	0.0044820609	0.33540872	0.94129596	-0.05911562	0.39556946	0.45193256	0.087468292	0.37009235	0.42731351	0.2006321	0.26247943	0.10530914	0.091322617	0.23797218	0.097618492	0.17064871	0.28592203	0.26402628	0.1986994	0.180216	0.056891396	0.12657933	0.39971295	0.053866642	0.13616499
1518	15.17	0.23349236	0.5862348	0.10781563	0.12969839	0.62857404	0.13769888	0.031330519	0.6795636	0.19227945	-0.061865707	0.73478864	0.0033541324	0.042522644	0.70065515	-0.2059572	0.14183887	0.63794971	-0.14966867	0.34126346	0.96169275	0.00050157231	0.33396466	1.0363145	0.16200157	0.35833865	1.0281865	-0.14705594	0.31967905	0.87891461	0.0045754642	0.34193448	0.9432193	-0.059005543	0.39877396	0.45153311	0.087748421	0.37304303	0.42616824	0.20036838	0.2627265	0.10521267	0.091158478	0.23810709	0.097605965	0.17054109	0.28742184	0.26375034	0.19847189	0.18028099	0.056954926	0.12655866	0.39979147	0.053776371	0.13619872
1519	15.18	0.23851054	0.58708484	0.10798838	0.1343362	0.63137891	0.13777922	0.036072041	0.68261371	0.19203949	-0.056565605	0.73865582	0.003267868	0.047821846	0.70365613	-0.20609122	0.14624309	0.64035571	-0.14939807	0.34714261	0.96430371	0.00029014567	0.33969427	1.0390382	0.16171918	0.36438895	1.0304232	-0.14730148	0.32567902	0.88163177	0.0047081094	0.34803836	0.94567847	-0.058981194	0.40192215	0.45096445	0.087907486	0.37593167	0.42504776	0.20015297	0.26295908	0.10513959	0.091018326	0.23821123	0.097596191	0.17046666	0.28888559	0.26349713	0.19828452	0.18034648	0.056996815	0.12652002	0.399858	0.053682545	0.13623883
1520	15.19	0.24355522	0.58804474	0.10821346	0.13896295	0.63445697	0.1377838	0.040797096	0.68593732	0.19181262	-0.051320217	0.74276019	0.00318309	0.053103031	0.70692218	-0.20621028	0.15065524	0.64309332	-0.14910718	0.35269482	0.96749011	4.9992122e-05	0.34499173	1.0423021	0.16148018	0.36991064	1.0333468	-0.14769205	0.33138287	0.88490997	0.0048272305	0.3537236	0.9486958	-0.059062244	0.40499689	0.45021182	0.087963959	0.37872003	0.42396997	0.19998445	0.26317438	0.10508778	0.09089785	0.23828041	0.097593201	0.17042068	0.29030551	0.26326019	0.19813474	0.18041161	0.056979752	0.12643318	0.39991278	0.053588608	0.13628471
1521	15.2	0.24857527	0.58912207	0.1084884	0.14357233	0.63782288	0.13769861	0.045535519	0.68956592	0.19162787	-0.046125843	0.74711761	0.003056901	0.058384605	0.7104729	-0.20632201	0.15511354	0.64619476	-0.14880067	0.3579324	0.97125067	-0.00022281215	0.34989856	1.0461143	0.1612692	0.37492703	1.0369874	-0.1482144	0.33677805	0.8887312	0.0048891721	0.3589986	0.95228564	-0.059261879	0.4079787	0.44931042	0.087966148	0.38137137	0.4229523	0.19985626	0.26336945	0.10505491	0.090793945	0.23831235	0.097600464	0.17039711	0.29167328	0.26303452	0.19802151	0.18047473	0.056857365	0.12626093	0.39995602	0.053499683	0.13633531
1522	15.21	0.25353026	0.59032312	0.10880589	0.14814983	0.64149121	0.13751595	0.050304756	0.69351703	0.19150418	-0.040985737	0.75172968	0.0028307946	0.063676739	0.71431989	-0.20643941	0.1596468	0.64968628	-0.14849017	0.36286758	0.97557825	-0.00052972734	0.35444989	1.0504786	0.16106822	0.37946695	1.0413429	-0.14884619	0.34185901	0.89307654	0.0048675203	0.36387772	0.95645319	-0.059584126	0.41084167	0.44831577	0.087955032	0.38385315	0.42201074	0.19975885	0.26354114	0.10503879	0.090705055	0.23830905	0.097621529	0.17038837	0.29297763	0.26281815	0.19794495	0.18053371	0.056579948	0.12596403	0.39998813	0.053420822	0.13638927
1523	15.22	0.25839307	0.59165466	0.10915729	0.15267638	0.64547589	0.1372363	0.055107872	0.69779608	0.19144609	-0.035907532	0.75658331	0.0024402716	0.068977806	0.71846741	-0.20657607	0.16427242	0.65358655	-0.14819307	0.36751221	0.98046149	-0.00087001443	0.35867471	1.0553961	0.16086038	0.38356613	1.0463795	-0.14955695	0.34662439	0.8979278	0.0047445722	0.36838364	0.96119568	-0.060021957	0.41355899	0.44728659	0.087957825	0.38614029	0.42115982	0.19968108	0.2636868	0.10503794	0.090630852	0.23827844	0.097659668	0.17038815	0.29420471	0.2626123	0.19790517	0.18058644	0.056105904	0.12551045	0.40001019	0.053355339	0.13644475
1524	15.23	0.26314877	0.59312225	0.10953461	0.15713254	0.64978802	0.13686922	0.059933189	0.70239954	0.19144125	-0.030900671	0.76165149	0.0018255919	0.074273705	0.72291284	-0.20674133	0.16899683	0.65790668	-0.14792957	0.37187787	0.98588599	-0.0012411864	0.36259641	1.0608606	0.160633	0.3872645	1.0520424	-0.15031419	0.35107602	0.90326898	0.0045049276	0.372547	0.96650372	-0.06055817	0.41610815	0.4462757	0.087990456	0.38821701	0.42041159	0.19961134	0.26380475	0.10505162	0.090571754	0.23823322	0.097714149	0.17039645	0.29533984	0.26242191	0.19790114	0.1806313	0.055421303	0.12489082	0.40002472	0.053304283	0.13649908
1525	15.24	0.26779236	0.59473053	0.10993167	0.1615036	0.65443646	0.13643312	0.064755844	0.70731659	0.19146294	-0.025975332	0.76689606	0.00094517297	0.079539795	0.72764801	-0.20693806	0.17381563	0.66264972	-0.14771834	0.37597604	0.99183551	-0.0016395259	0.36623346	1.0668612	0.16037799	0.39060178	1.0582653	-0.15109099	0.35522409	0.90908807	0.0041391268	0.37640216	0.97236322	-0.061169815	0.41847287	0.44532529	0.088059456	0.39007635	0.41977527	0.19953838	0.26389465	0.10507939	0.090528809	0.23818713	0.097779182	0.17042006	0.29637012	0.26225519	0.19792955	0.18066716	0.054569038	0.12414214	0.4000351	0.053267159	0.13654893
1526	15.25	0.27232684	0.59648279	0.11034381	0.16578294	0.65942773	0.13595341	0.069541725	0.71253143	0.1914771	-0.021142036	0.77227667	-0.00020657308	0.084744003	0.73266187	-0.20716287	0.17871114	0.66781	-0.14757121	0.37981815	0.99829327	-0.0020606754	0.36959952	1.0733807	0.16009059	0.39361786	1.0649847	-0.15186865	0.35909427	0.9153797	0.0036549838	0.3799826	0.97875696	-0.061833515	0.4206431	0.44446628	0.08816362	0.39171832	0.41925787	0.19945203	0.26395795	0.1051205	0.090503975	0.23815054	0.097847527	0.17046703	0.29728635	0.26212216	0.19798373	0.18069415	0.053665771	0.12336184	0.40004465	0.053242771	0.13659174
1527	15.26	0.27676166	0.59838013	0.11076738	0.16997195	0.66476495	0.13545911	0.074253082	0.71802698	0.19144994	-0.016410374	0.77776178	-0.0015698533	0.08985141	0.7379422	-0.2074081	0.18364856	0.67337122	-0.14748529	0.38341501	1.0052408	-0.0025004494	0.37270413	1.0803979	0.15976863	0.39635519	1.0721509	-0.15263461	0.36273105	0.92214545	0.0030861969	0.38331903	0.98566608	-0.062527859	0.42261557	0.44371881	0.08829493	0.39314618	0.41886401	0.19934357	0.26399835	0.10517316	0.090500893	0.23812894	0.097912704	0.17054176	0.29808426	0.26203281	0.19805304	0.18071396	0.052861309	0.12267398	0.40005557	0.053229771	0.13662671
1528	15.27	0.28110886	0.60042029	0.11119927	0.17407979	0.67044708	0.13497922	0.078854576	0.72378796	0.19135461	-0.011786893	0.78334039	-0.0030000031	0.094829567	0.74347766	-0.20766417	0.18857253	0.679302	-0.14743788	0.3867767	1.0126594	-0.0029556499	0.37555447	1.0878887	0.1594126	0.39885889	1.0797273	-0.15337909	0.36618793	0.92938867	0.0024804828	0.38643878	0.9930708	-0.063234234	0.42438956	0.44309348	0.088437485	0.39436386	0.41859488	0.19920435	0.26402142	0.10523364	0.090525864	0.23812476	0.097967758	0.17064354	0.29876471	0.26199631	0.198123	0.18072958	0.052259754	0.1221637	0.40006857	0.053226662	0.13665477
